:SAMPLES-PER-SECOND 30
:FULLY-SPECIFIED
:DEGREES
385
root  -12.4482 39.3858 -4.70064 62.5177 -89.8694 -70.0897
RightUpLeg  -31.5454 -11.5347 -9.20217
RightLeg  54.5783 -9.13863 -13.8947
RightFoot  13.8673 -0.213784 1.38132
RightToes  -1.16417e-010 0 -3.6325e-017
Spine  18.9791 0.78478 -9.2539
Spine1  1.64793 -1.22732 3.1606
HEad  -16.9968 10.3598 -0.649445
LeftShoulder1  0.556711 -0.452856 -6.29607
LeftArm  -34.2563 -34.1655 -33.1348
LeftForeArm  24.0008 -57.5889 -15.6981
LeftHand  -0.933834 0.614511 22.6692
RightShoulder  2.13263 4.66807 19.7055
RightArm  49.3443 -32.9134 53.67
RightForeArm  9.2448 28.497 5.6311
RightHand  1.16075 6.31188 11.0995
LeftUpLeg  2.51717 -2.86156 10.9754
LeftLeg  24.8948 -10.7913 -5.11791
LeftFoot  -9.95699 0.287424 -19.1323
LeftToes  6.91183e-011 3.39355e-011 2.1261e-011
386
root  -12.7105 39.7504 -5.66818 67.2307 -85.0018 -73.5667
RightUpLeg  -28.1209 -11.1319 -7.27646
RightLeg  46.8273 -12.8286 -14.645
RightFoot  18.9397 0.378269 -0.965623
RightToes  -1.16417e-010 0 -3.6325e-017
Spine  18.9479 -0.44737 -12.1519
Spine1  0.393703 -4.33747 11.6812
HEad  -17.3789 14.5043 -0.810768
LeftShoulder1  1.03075 -3.04526 -8.23267
LeftArm  -20.1861 -26.1289 -36.1063
LeftForeArm  28.2964 -47.7027 -10.1622
LeftHand  -1.05535 -1.63052 17.5623
RightShoulder  1.94903 4.1021 19.1984
RightArm  44.1065 -36.3579 46.8375
RightForeArm  19.973 35.363 6.79465
RightHand  0.676295 5.34573 6.95874
LeftUpLeg  1.34151 -9.86737 15.075
LeftLeg  24.8758 -5.22637 -2.23929
LeftFoot  -8.01488 0.639249 -20.2494
LeftToes  6.91183e-011 3.39355e-011 2.1261e-011
387
root  -12.9681 39.6424 -6.39092 74.1226 -80.8545 -79.2119
RightUpLeg  -24.8234 -10.7091 -5.19695
RightLeg  36.9844 -10.5203 -8.76895
RightFoot  25.5533 -0.61254 2.26605
RightToes  -1.16417e-010 0 -3.6325e-017
Spine  18.7255 -2.04274 -13.541
Spine1  0.17667 -7.15116 17.7384
HEad  -18.8431 19.2938 -1.42493
LeftShoulder1  1.42348 -4.92851 -9.55565
LeftArm  -2.34906 -19.9652 -36.5801
LeftForeArm  33.3313 -41.3002 -7.61555
LeftHand  -0.806777 -3.22824 11.0193
RightShoulder  1.68118 3.26468 18.3554
RightArm  40.2517 -37.5888 39.7808
RightForeArm  26.6471 42.364 8.43929
RightHand  0.401101 4.64317 4.34866
LeftUpLeg  -0.967994 -15.4594 17.253
LeftLeg  30.1724 2.77612 2.16227
LeftFoot  -8.36801 0.597424 -20.9246
LeftToes  6.91183e-011 3.39355e-011 2.1261e-011
388
root  -13.2641 39.1127 -7.03303 87.3418 -77.3169 -91.4496
RightUpLeg  -21.6444 -10.105 -2.37489
RightLeg  28.2697 -3.29223 -2.13035
RightFoot  28.7761 -3.20111 9.42162
RightToes  -1.16417e-010 0 -3.6325e-017
Spine  17.6697 -3.23356 -14.0567
Spine1  1.54562 -9.18914 21.1627
HEad  -21.2649 24.2905 -1.9181
LeftShoulder1  1.42713 -4.94871 -9.51328
LeftArm  17.7465 -15.9913 -37.8819
LeftForeArm  37.4477 -39.984 -7.00663
LeftHand  -0.294775 -3.83889 3.93972
RightShoulder  1.3386 2.14988 17.0881
RightArm  35.9284 -35.6863 33.6759
RightForeArm  24.8503 47.5303 10.4192
RightHand  0.804312 5.84384 7.9131
LeftUpLeg  -2.49631 -16.0844 19.1187
LeftLeg  36.9208 10.8709 9.0137
LeftFoot  -10.6255 0.199694 -21.3424
LeftToes  6.91183e-011 3.39355e-011 2.1261e-011
389
root  -13.5585 38.3548 -7.74181 101.501 -73.8294 -105.254
RightUpLeg  -19.1831 -10.0599 1.16099
RightLeg  24.335 4.00257 1.82813
RightFoot  23.8482 -4.73577 15.4432
RightToes  -1.16417e-010 0 -3.6325e-017
Spine  16.5355 -3.16708 -15.2222
Spine1  3.14333 -10.1199 23.9923
HEad  -23.5432 28.6982 -2.21394
LeftShoulder1  1.19827 -3.95745 -8.60501
LeftArm  34.1595 -12.8854 -40.66
LeftForeArm  42.1836 -42.5709 -7.50585
LeftHand  0.0788975 -3.91336 -0.685292
RightShoulder  0.90525 0.638832 15.0763
RightArm  30.444 -31.1369 28.5747
RightForeArm  18.9262 50.0142 11.9367
RightHand  1.49027 7.2551 13.2456
LeftUpLeg  -2.47096 -14.5835 21.5761
LeftLeg  42.5782 16.6755 16.1085
LeftFoot  -13.5659 -0.351077 -21.9481
LeftToes  6.91183e-011 3.39355e-011 2.1261e-011
390
root  -13.7512 37.4179 -8.41282 113.059 -70.2162 -117.325
RightUpLeg  -18.6732 -10.7883 4.56389
RightLeg  26.6188 8.41268 4.36915
RightFoot  13.3364 -3.63506 16.7411
RightToes  -1.16417e-010 0 -3.6325e-017
Spine  16.6061 -1.9091 -16.6675
Spine1  3.42846 -9.85157 27.1171
HEad  -24.903 32.0254 -2.87471
LeftShoulder1  1.0943 -3.46334 -8.21026
LeftArm  43.2701 -9.53241 -42.4228
LeftForeArm  47.4948 -47.3366 -8.77729
LeftHand  0.0830285 -3.81956 -0.790441
RightShoulder  0.510703 -0.873621 12.4955
RightArm  23.6211 -24.9128 24.4831
RightForeArm  11.9554 49.2922 12.1744
RightHand  1.67608 7.26227 14.8768
LeftUpLeg  -1.3187 -13.5872 24.3421
LeftLeg  47.2539 16.598 18.6307
LeftFoot  -16.7619 -1.07802 -24.3377
LeftToes  6.91183e-011 3.39355e-011 2.1261e-011
391
root  -13.8487 36.2881 -8.85626 122.565 -67.1524 -127.744
RightUpLeg  -20.7963 -10.6277 6.44485
RightLeg  33.4808 9.84964 6.70288
RightFoot  3.42749 -1.83145 14.2318
RightToes  -1.16417e-010 0 -3.6325e-017
Spine  17.4846 -0.368702 -17.0576
Spine1  2.87113 -8.64542 28.5935
HEad  -25.9367 34.0177 -4.26032
LeftShoulder1  1.07616 -3.26501 -8.42417
LeftArm  45.7238 -6.64918 -41.2046
LeftForeArm  53.3132 -53.3004 -10.8154
LeftHand  -0.159407 -3.07767 2.43463
RightShoulder  0.312724 -1.70726 10.373
RightArm  14.6801 -17.8379 21.3945
RightForeArm  4.48503 45.1375 10.9826
RightHand  1.39347 6.36152 13.3239
LeftUpLeg  -0.107702 -11.773 26.1887
LeftLeg  51.7988 11.6905 15.851
LeftFoot  -20.9274 -2.23339 -27.6344
LeftToes  6.91183e-011 3.39355e-011 2.1261e-011
392
root  -13.9752 35.1989 -9.03932 130.109 -66.0861 -135.829
RightUpLeg  -24.1845 -9.50343 5.57303
RightLeg  41.0047 9.77689 8.72441
RightFoot  -3.49724 -0.900967 12.9883
RightToes  -1.16417e-010 0 -3.6325e-017
Spine  18.2312 0.488546 -16.3488
Spine1  2.22757 -7.35446 27.2906
HEad  -27.2834 34.3315 -6.20438
LeftShoulder1  0.926708 -2.39445 -8.18948
LeftArm  44.8996 -6.09392 -38.1437
LeftForeArm  58.7983 -58.4523 -13.0398
LeftHand  -0.356965 -1.7501 5.97963
RightShoulder  0.277803 -1.81642 9.24722
RightArm  3.65544 -10.9683 18.572
RightForeArm  -1.70743 38.5814 9.05188
RightHand  1.05269 5.515 10.8361
LeftUpLeg  -0.380564 -7.78707 26.6252
LeftLeg  56.7985 7.54804 12.8325
LeftFoot  -24.582 -3.25017 -28.7609
LeftToes  6.91183e-011 3.39355e-011 2.1261e-011
393
root  -14.161 34.3939 -9.02462 133.859 -68.4778 -139.43
RightUpLeg  -27.0841 -9.63112 1.93909
RightLeg  46.8633 9.35998 10.2329
RightFoot  -9.00421 -0.362821 15.0058
RightToes  -1.16417e-010 0 -3.6325e-017
Spine  19.1852 0.411174 -15.1318
Spine1  0.711586 -6.66554 25.0101
HEad  -28.4515 32.6765 -8.42888
LeftShoulder1  0.714339 -1.31041 -7.22506
LeftArm  43.1921 -8.37905 -35.3523
LeftForeArm  61.5808 -60.4452 -14.085
LeftHand  -0.44504 -0.0587307 9.5947
RightShoulder  0.260232 -1.84067 8.2879
RightArm  -7.83904 -5.59203 14.7702
RightForeArm  -7.59838 31.6153 7.34573
RightHand  0.626682 4.66614 6.91333
LeftUpLeg  -3.42617 -3.00556 26.4463
LeftLeg  61.8343 5.05632 10.763
LeftFoot  -25.7919 -3.41628 -27.6407
LeftToes  6.91183e-011 3.39355e-011 2.1261e-011
394
root  -14.3118 33.8199 -8.80267 133.312 -73.7744 -138.201
RightUpLeg  -29.3052 -11.8336 -3.19978
RightLeg  51.3531 8.45939 10.8267
RightFoot  -13.2815 0.193431 17.0799
RightToes  -1.16417e-010 0 -3.6325e-017
Spine  20.8331 -0.164741 -13.1101
Spine1  -2.31718 -6.17624 23.0813
HEad  -28.9271 29.2142 -10.6756
LeftShoulder1  0.638499 -1.15756 -5.9705
LeftArm  40.4623 -11.9291 -32.9105
LeftForeArm  60.3561 -59.3512 -13.5039
LeftHand  -0.430631 2.13524 15.3348
RightShoulder  0.171087 -2.30029 6.65203
RightArm  -18.5104 -2.31722 9.46811
RightForeArm  -16.0231 25.4028 6.30566
RightHand  0.0533144 3.54331 0.470887
LeftUpLeg  -9.23291 1.43712 26.5993
LeftLeg  67.3519 0.496208 1.70593
LeftFoot  -24.094 -2.88084 -26.5905
LeftToes  6.91183e-011 3.39355e-011 2.1261e-011
395
root  -14.4012 33.3524 -8.35005 133.464 -79.4555 -137.831
RightUpLeg  -31.0625 -14.0519 -8.99245
RightLeg  54.9619 7.20759 10.524
RightFoot  -14.9517 0.443076 17.1931
RightToes  -1.16417e-010 0 -3.6325e-017
Spine  22.7595 -0.741208 -9.58196
Spine1  -5.72586 -5.04277 19.9344
HEad  -29.1376 24.7044 -12.5098
LeftShoulder1  0.643772 -1.67863 -4.50696
LeftArm  35.7566 -15.0847 -29.1846
LeftForeArm  56.8321 -57.2323 -12.513
LeftHand  -0.225722 4.28082 22.7543
RightShoulder  0.0416676 -3.15738 4.42626
RightArm  -29.3738 -0.418883 3.91477
RightForeArm  -25.1222 20.2296 5.63994
RightHand  -0.512596 2.52086 -7.69457
LeftUpLeg  -15.532 5.90088 26.9515
LeftLeg  73.7361 -4.29787 -15.3871
LeftFoot  -18.098 -1.57483 -28.5087
LeftToes  6.91183e-011 3.39355e-011 2.1261e-011
396
root  -14.4501 32.998 -7.68316 149.475 -83.5274 -154.032
RightUpLeg  -32.085 -14.032 -15.3398
RightLeg  57.1979 6.16903 9.78733
RightFoot  -14.4806 0.367161 16.9015
RightToes  -1.16417e-010 0 -3.6325e-017
Spine  24.4925 -1.00976 -5.26247
Spine1  -8.08803 -3.38835 14.5453
HEad  -29.3831 20.131 -13.627
LeftShoulder1  0.574811 -1.61651 -3.13784
LeftArm  29.5942 -17.5355 -23.5098
LeftForeArm  53.5409 -54.936 -11.5556
LeftHand  0.0245414 5.48379 29.2079
RightShoulder  -0.0654794 -4.17223 1.54345
RightArm  -40.6732 1.10755 0.33605
RightForeArm  -32.728 17.3416 4.02717
RightHand  -0.920309 1.59384 -15.4392
LeftUpLeg  -19.5416 10.3596 27.2749
LeftLeg  77.9105 -5.43731 -26.2777
LeftFoot  -11.0393 0.143874 -32.9098
LeftToes  6.91183e-011 3.39355e-011 2.1261e-011
397
root  -14.5369 32.9578 -7.0012 -166.698 -85.1558 161.683
RightUpLeg  -31.7969 -12.257 -21.8121
RightLeg  57.2421 5.11739 8.09415
RightFoot  -13.6478 0.258803 17.36
RightToes  -1.16417e-010 0 -3.6325e-017
Spine  25.7129 -0.908882 -2.19983
Spine1  -9.78313 -1.87841 8.47025
HEad  -29.004 16.0074 -14.1688
LeftShoulder1  0.459561 -0.822074 -2.48038
LeftArm  23.7026 -19.4174 -17.5717
LeftForeArm  50.5696 -51.4525 -10.1792
LeftHand  0.201803 6.03555 33.8884
RightShoulder  -0.116667 -5.32613 -2.23302
RightArm  -53.7513 2.29769 -0.576613
RightForeArm  -36.4292 18.1258 2.68141
RightHand  -1.13273 0.597953 -21.9082
LeftUpLeg  -20.53 13.2713 28.0974
LeftLeg  76.2374 -5.08122 -22.3189
LeftFoot  -8.32032 0.99153 -34.6933
LeftToes  6.91183e-011 3.39355e-011 2.1261e-011
398
root  -14.6666 33.1441 -6.26049 -119.549 -84.2449 114.601
RightUpLeg  -30.3931 -10.9686 -27.4049
RightLeg  55.6057 3.62822 5.29009
RightFoot  -12.8095 0.147767 18.1874
RightToes  -1.16417e-010 0 -3.6325e-017
Spine  26.0042 -0.928649 0.406808
Spine1  -11.4534 -0.903753 3.73403
HEad  -27.4121 12.1391 -14.5011
LeftShoulder1  0.404895 -0.285957 -2.53938
LeftArm  18.5719 -20.284 -13.5625
LeftForeArm  46.0387 -46.8659 -8.68304
LeftHand  0.349946 6.39635 37.5514
RightShoulder  -0.0900835 -6.56613 -6.23077
RightArm  -70.3036 2.96609 -0.238179
RightForeArm  -32.66 21.6899 4.65488
RightHand  -1.29003 -0.0722411 -27.7657
LeftUpLeg  -20.7496 13.1669 29.1907
LeftLeg  68.417 -3.69078 -9.8353
LeftFoot  -5.48863 1.55645 -30.0374
LeftToes  6.91183e-011 3.39355e-011 2.1261e-011
